<svg xmlns="http://www.w3.org/2000/svg" xmlns:xlink="http://www.w3.org/1999/xlink" width="500" zoomAndPan="magnify" viewBox="0 0 375 374.999991" height="500" preserveAspectRatio="xMidYMid meet" version="1.2"><defs><clipPath id="464392b93b"><path d="M 96.449219 69.578125 L 278.699219 69.578125 L 278.699219 257.828125 L 96.449219 257.828125 Z M 96.449219 69.578125 "/></clipPath><clipPath id="11d63cdf6e"><path d="M 158.585938 91.738281 L 196.773438 91.738281 L 196.773438 268.511719 L 158.585938 268.511719 Z M 158.585938 91.738281 "/></clipPath><clipPath id="1af48b7656"><path d="M 196.773438 129.960938 L 196.773438 268.394531 L 158.585938 230.167969 L 158.585938 91.738281 Z M 196.773438 129.960938 "/></clipPath><clipPath id="c69878b299"><path d="M 216.175781 158.421875 L 254.363281 158.421875 L 254.363281 276.867188 L 216.175781 276.867188 Z M 216.175781 158.421875 "/></clipPath><clipPath id="ddb04c0c22"><path d="M 254.363281 196.648438 L 254.363281 276.742188 L 216.175781 238.519531 L 216.175781 158.421875 Z M 254.363281 196.648438 "/></clipPath><clipPath id="66464ae57d"><path d="M 60.101562 236.320312 L 314.902344 236.320312 L 314.902344 285.09375 L 60.101562 285.09375 Z M 60.101562 236.320312 "/></clipPath></defs><g id="97c0e9486e"><g clip-rule="nonzero" clip-path="url(#464392b93b)"><path style=" stroke:none;fill-rule:evenodd;fill:#66b0df;fill-opacity:1;" d="M 123.667969 176.023438 L 158.632812 141.332031 L 158.632812 92.617188 L 175.894531 109.742188 L 216.359375 69.59375 L 216.359375 162.519531 L 251.328125 197.210938 L 251.328125 249.839844 L 278.546875 249.839844 L 278.546875 257.589844 C 266.890625 257.589844 255.234375 257.589844 243.578125 257.589844 L 243.578125 200.441406 L 216.359375 173.433594 L 216.359375 257.589844 L 208.613281 257.589844 L 208.613281 88.195312 L 181.394531 115.199219 L 196.410156 130.097656 L 196.410156 257.589844 L 188.664062 257.589844 L 188.664062 133.324219 L 166.382812 111.214844 L 166.382812 257.589844 L 158.632812 257.589844 L 158.632812 152.246094 L 131.414062 179.25 L 131.414062 257.585938 C 119.757812 257.585938 108.101562 257.585938 96.449219 257.585938 L 96.449219 249.839844 L 123.667969 249.839844 Z M 123.667969 176.023438 "/></g><g clip-rule="nonzero" clip-path="url(#11d63cdf6e)"><g clip-rule="nonzero" clip-path="url(#1af48b7656)"><path style=" stroke:none;fill-rule:nonzero;fill:#166394;fill-opacity:1;" d="M 196.773438 91.738281 L 196.773438 268.359375 L 158.585938 268.359375 L 158.585938 91.738281 Z M 196.773438 91.738281 "/></g></g><g clip-rule="nonzero" clip-path="url(#c69878b299)"><g clip-rule="nonzero" clip-path="url(#ddb04c0c22)"><path style=" stroke:none;fill-rule:nonzero;fill:#166394;fill-opacity:1;" d="M 254.363281 158.421875 L 254.363281 276.71875 L 216.175781 276.71875 L 216.175781 158.421875 Z M 254.363281 158.421875 "/></g></g><g clip-rule="nonzero" clip-path="url(#66464ae57d)"><path style=" stroke:none;fill-rule:nonzero;fill:#ffffff;fill-opacity:1;" d="M 60.101562 236.320312 L 314.835938 236.320312 L 314.835938 285.09375 L 60.101562 285.09375 Z M 60.101562 236.320312 "/></g><g style="fill:#ffffff;fill-opacity:1;"><g transform="translate(71.482193, 273.044161)"><path style="stroke:none" d="M 18 0.519531 L 14.203125 -10.710938 L 18.667969 -12.21875 L 18.667969 -7.507812 L 8.371094 -7.507812 L 8.371094 -12.21875 L 12.808594 -10.636719 L 8.808594 0.59375 L 4.367188 -0.988281 L 4.367188 -5.699219 L 12.980469 -5.699219 L 12.980469 4.710938 L -4.402344 4.710938 L -4.402344 -5.699219 L 2.757812 -5.699219 L 2.757812 -0.988281 L -1.660156 -2.628906 L 12.738281 -41.421875 L 23.570312 -41.421875 L 37.804688 -2.609375 L 33.382812 -0.988281 L 33.382812 -5.699219 L 40.488281 -5.699219 L 40.488281 4.710938 L 14.058594 4.710938 L 14.058594 -5.699219 L 22.464844 -5.699219 L 22.464844 -0.988281 Z M 29.03125 3.722656 L 18.769531 3.722656 L 18.769531 -0.988281 L 23.484375 -0.988281 L 23.484375 0 L 18.769531 0 L 18.769531 -4.710938 L 35.773438 -4.710938 L 35.773438 0 L 31.0625 0 L 31.0625 -0.988281 L 35.773438 -0.988281 L 35.773438 3.722656 L 30.089844 3.722656 L 15.855469 -35.085938 L 20.277344 -36.710938 L 20.277344 -31.996094 L 16.015625 -31.996094 L 16.015625 -36.710938 L 20.433594 -35.070312 L 6.035156 3.722656 L 0.3125 3.722656 L 0.3125 -0.988281 L 5.023438 -0.988281 L 5.023438 0 L 0.3125 0 L 0.3125 -4.710938 L 8.269531 -4.710938 L 8.269531 0 L 3.554688 0 L 3.554688 -0.988281 L 8.269531 -0.988281 L 8.269531 3.722656 L -2.316406 3.722656 L 5.046875 -16.933594 L 22.046875 -16.933594 L 26.925781 -2.496094 Z M 18.164062 -25.394531 L 13.273438 -11.773438 L 8.839844 -13.363281 L 8.839844 -18.074219 L 18.25 -18.074219 L 18.25 -13.363281 L 13.777344 -11.878906 L 9.253906 -25.5 L 13.726562 -26.988281 Z M 13.898438 -41.421875 L 24.78125 -8.652344 L 2.140625 -8.652344 L 9.292969 -28.578125 Z M 13.898438 -41.421875 "/></g></g><g style="fill:#ffffff;fill-opacity:1;"><g transform="translate(107.047452, 273.044161)"><path style="stroke:none" d="M 1.09375 -41.109375 L 32.609375 -41.109375 L 33.605469 -21.390625 L 24.570312 -21.390625 L 23.363281 -24.292969 C 22.738281 -25.792969 22.117188 -27.03125 21.5 -28 C 21.011719 -28.773438 20.566406 -29.324219 20.160156 -29.652344 C 19.875 -29.886719 19.460938 -30.078125 18.925781 -30.226562 C 18.167969 -30.4375 17.234375 -30.542969 16.121094 -30.542969 L 14.300781 -30.542969 L 14.300781 -35.253906 L 19.011719 -35.253906 L 19.011719 -19.1875 L 14.300781 -19.1875 L 14.300781 -23.898438 L 16.066406 -23.898438 C 16.207031 -23.898438 16.3125 -23.914062 16.382812 -23.945312 C 16.464844 -23.984375 16.5625 -24.0625 16.675781 -24.1875 C 17.222656 -24.796875 17.636719 -25.734375 17.910156 -26.996094 L 18.714844 -30.710938 L 28.007812 -30.710938 L 28.007812 -5.894531 L 18.695312 -5.894531 L 17.828125 -9.507812 C 17.585938 -10.515625 17.316406 -11.347656 17.019531 -12.003906 C 16.820312 -12.445312 16.640625 -12.75 16.476562 -12.917969 C 16.347656 -13.054688 16.039062 -13.121094 15.546875 -13.121094 L 14.300781 -13.121094 L 14.300781 -17.835938 L 19.011719 -17.835938 L 19.011719 -1.144531 L 14.300781 -1.144531 L 14.300781 -5.855469 L 16.273438 -5.855469 C 18.308594 -5.855469 20 -6.433594 21.355469 -7.589844 C 22.859375 -8.875 23.902344 -10.542969 24.476562 -12.601562 L 25.4375 -16.046875 L 34.941406 -16.046875 L 34.179688 4.710938 L -3.621094 4.710938 L -3.621094 -5.855469 L 4.160156 -5.855469 L 4.160156 -1.144531 L -0.550781 -1.144531 L -0.550781 -35.253906 L 4.160156 -35.253906 L 4.160156 -30.542969 L -3.621094 -30.542969 L -3.621094 -41.109375 Z M 1.09375 -31.6875 L 1.09375 -36.398438 L 5.804688 -36.398438 L 5.804688 -35.253906 L 1.09375 -35.253906 L 1.09375 -39.96875 L 8.871094 -39.96875 L 8.871094 3.570312 L 1.09375 3.570312 L 1.09375 -1.144531 L 5.804688 -1.144531 L 5.804688 0 L 1.09375 0 L 1.09375 -4.710938 L 29.636719 -4.710938 L 29.636719 0 L 24.929688 -0.171875 L 25.34375 -11.507812 L 30.054688 -11.335938 L 30.054688 -6.621094 L 29.015625 -6.621094 L 29.015625 -11.335938 L 33.554688 -10.070312 C 32.464844 -6.164062 30.4375 -2.945312 27.46875 -0.417969 C 24.355469 2.238281 20.621094 3.570312 16.273438 3.570312 L 9.585938 3.570312 L 9.585938 -22.546875 L 15.546875 -22.546875 C 17.046875 -22.546875 18.429688 -22.304688 19.695312 -21.820312 C 21.082031 -21.289062 22.28125 -20.488281 23.300781 -19.421875 C 24.941406 -17.699219 26.171875 -15.128906 26.992188 -11.707031 L 22.410156 -10.609375 L 22.410156 -15.320312 L 23.292969 -15.320312 L 23.292969 -10.609375 L 18.582031 -10.609375 L 18.582031 -26 L 23.292969 -26 L 23.292969 -21.285156 L 22.515625 -21.285156 L 22.515625 -26 L 27.121094 -25 C 26.492188 -22.105469 25.34375 -19.730469 23.675781 -17.878906 C 22.679688 -16.769531 21.535156 -15.929688 20.246094 -15.351562 C 18.949219 -14.765625 17.554688 -14.472656 16.066406 -14.472656 L 9.585938 -14.472656 L 9.585938 -39.96875 L 16.121094 -39.96875 C 20.324219 -39.96875 23.65625 -38.964844 26.117188 -36.957031 C 28.324219 -35.15625 30.304688 -32.144531 32.066406 -27.914062 L 27.714844 -26.101562 L 27.714844 -30.816406 L 28.652344 -30.816406 L 28.652344 -26.101562 L 23.945312 -25.863281 L 23.425781 -36.160156 L 28.128906 -36.398438 L 28.128906 -31.6875 Z M 1.09375 -31.6875 "/></g></g><g style="fill:#ffffff;fill-opacity:1;"><g transform="translate(138.972987, 273.044161)"><path style="stroke:none" d="M 16.898438 -5.285156 C 17.640625 -5.285156 18.273438 -5.46875 18.796875 -5.835938 C 18.78125 -5.824219 18.761719 -5.796875 18.742188 -5.75 C 18.773438 -5.820312 18.789062 -5.972656 18.789062 -6.214844 C 18.789062 -6.421875 18.773438 -6.554688 18.742188 -6.617188 C 18.746094 -6.613281 18.75 -6.609375 18.75 -6.605469 C 18.730469 -6.628906 18.695312 -6.65625 18.644531 -6.691406 C 17.644531 -7.394531 16.074219 -8.042969 13.933594 -8.644531 C 11.039062 -9.457031 8.878906 -10.195312 7.453125 -10.855469 C 5.882812 -11.585938 4.398438 -12.535156 3.003906 -13.703125 C 1.308594 -15.128906 0.046875 -16.914062 -0.785156 -19.066406 C -1.53125 -21.007812 -1.90625 -23.214844 -1.90625 -25.6875 C -1.90625 -27.855469 -1.507812 -29.890625 -0.71875 -31.796875 C 0.0664062 -33.691406 1.230469 -35.414062 2.765625 -36.960938 C 5.886719 -40.109375 10.007812 -41.683594 15.132812 -41.683594 C 17.382812 -41.683594 19.707031 -41.359375 22.105469 -40.714844 C 23.023438 -40.464844 23.757812 -40.28125 24.300781 -40.164062 C 24.519531 -40.117188 24.691406 -40.085938 24.816406 -40.066406 C 24.832031 -40.0625 24.84375 -40.058594 24.855469 -40.058594 C 24.855469 -40.058594 24.851562 -40.058594 24.84375 -40.058594 C 24.773438 -40.066406 24.691406 -40.070312 24.59375 -40.070312 C 23.734375 -40.070312 22.984375 -39.8125 22.339844 -39.296875 C 22.066406 -39.082031 21.875 -38.871094 21.765625 -38.667969 L 23.109375 -41.109375 L 31.019531 -41.109375 L 31.710938 -21.183594 L 23.214844 -21.183594 L 21.871094 -23.617188 C 20.421875 -26.246094 18.945312 -28.3125 17.441406 -29.816406 C 16.542969 -30.714844 15.675781 -31.164062 14.84375 -31.164062 C 14.238281 -31.164062 13.742188 -31.109375 13.351562 -30.992188 C 13.148438 -30.929688 13 -30.863281 12.90625 -30.785156 C 12.875 -30.757812 12.855469 -30.738281 12.84375 -30.726562 C 12.847656 -30.730469 12.851562 -30.734375 12.855469 -30.742188 C 12.835938 -30.695312 12.824219 -30.597656 12.824219 -30.445312 C 12.824219 -30.414062 12.824219 -30.390625 12.828125 -30.375 L 12.824219 -30.386719 C 12.8125 -30.4375 12.789062 -30.488281 12.757812 -30.546875 C 12.726562 -30.601562 12.695312 -30.648438 12.664062 -30.679688 L 12.660156 -30.683594 C 12.679688 -30.667969 12.699219 -30.652344 12.726562 -30.636719 C 13.734375 -30.003906 15.035156 -29.46875 16.625 -29.039062 C 18.742188 -28.464844 20.160156 -28.0625 20.875 -27.828125 C 21.59375 -27.597656 22.464844 -27.285156 23.492188 -26.890625 C 24.765625 -26.40625 25.847656 -25.871094 26.742188 -25.285156 C 27.542969 -24.753906 28.371094 -24.109375 29.222656 -23.34375 C 30.320312 -22.359375 31.191406 -21.25 31.835938 -20.023438 L 27.664062 -17.835938 L 31.769531 -20.144531 C 33.109375 -17.765625 33.777344 -15.019531 33.777344 -11.90625 C 33.777344 -9.445312 33.378906 -7.1875 32.582031 -5.136719 C 31.746094 -2.992188 30.5 -1.117188 28.839844 0.496094 C 25.585938 3.652344 21.414062 5.234375 16.328125 5.234375 C 14.035156 5.234375 11.457031 4.941406 8.597656 4.355469 C 7.355469 4.101562 6.394531 3.914062 5.71875 3.789062 C 5.410156 3.734375 5.171875 3.691406 5.007812 3.667969 C 4.960938 3.660156 4.929688 3.65625 4.917969 3.652344 C 5.027344 3.667969 5.15625 3.671875 5.304688 3.671875 C 5.984375 3.671875 6.617188 3.511719 7.199219 3.195312 C 7.550781 3.003906 7.847656 2.773438 8.089844 2.503906 C 8.1875 2.398438 8.257812 2.304688 8.300781 2.230469 C 8.285156 2.257812 8.257812 2.3125 8.222656 2.394531 L 6.992188 5.234375 L -1.347656 5.234375 L -2.261719 -16.566406 L 6.433594 -16.566406 L 7.742188 -13.980469 C 9.019531 -11.453125 10.648438 -9.25 12.628906 -7.371094 C 14.09375 -5.980469 15.519531 -5.285156 16.898438 -5.285156 Z M 16.898438 4.140625 C 13.011719 4.140625 9.425781 2.582031 6.140625 -0.535156 C 3.371094 -3.160156 1.101562 -6.226562 -0.667969 -9.730469 L 3.535156 -11.855469 L 3.535156 -7.144531 L 2.652344 -7.144531 L 2.652344 -11.855469 L 7.359375 -12.054688 L 7.878906 0.320312 L 3.171875 0.519531 L 3.171875 -4.191406 L 3.898438 -4.191406 L 3.898438 0.519531 L -0.425781 -1.355469 C 0.00390625 -2.34375 0.507812 -3.160156 1.085938 -3.800781 C 1.5625 -4.332031 2.097656 -4.757812 2.6875 -5.078125 C 3.507812 -5.527344 4.382812 -5.753906 5.304688 -5.753906 C 5.730469 -5.753906 6.4375 -5.660156 7.425781 -5.480469 C 8.160156 -5.34375 9.179688 -5.144531 10.484375 -4.878906 C 12.722656 -4.421875 14.667969 -4.191406 16.328125 -4.191406 C 18.867188 -4.191406 20.847656 -4.882812 22.273438 -6.269531 C 22.953125 -6.925781 23.460938 -7.6875 23.796875 -8.554688 C 24.167969 -9.507812 24.355469 -10.625 24.355469 -11.90625 C 24.355469 -13.371094 24.085938 -14.578125 23.554688 -15.523438 L 23.519531 -15.585938 L 23.488281 -15.648438 C 23.371094 -15.875 23.183594 -16.101562 22.929688 -16.328125 C 22.429688 -16.777344 21.972656 -17.136719 21.566406 -17.40625 C 21.242188 -17.617188 20.765625 -17.84375 20.132812 -18.085938 C 19.253906 -18.421875 18.53125 -18.679688 17.96875 -18.863281 C 17.398438 -19.046875 16.128906 -19.40625 14.15625 -19.941406 C 11.660156 -20.621094 9.507812 -21.527344 7.707031 -22.660156 C 6.324219 -23.53125 5.257812 -24.636719 4.515625 -25.972656 C 3.773438 -27.316406 3.398438 -28.808594 3.398438 -30.445312 C 3.398438 -31.9375 3.683594 -33.320312 4.25 -34.59375 C 4.84375 -35.910156 5.707031 -37.050781 6.851562 -38.007812 C 8.90625 -39.730469 11.570312 -40.589844 14.84375 -40.589844 C 18.277344 -40.589844 21.363281 -39.222656 24.105469 -36.480469 C 26.238281 -34.347656 28.246094 -31.578125 30.125 -28.171875 L 26 -25.894531 L 26 -30.605469 L 26.832031 -30.605469 L 26.832031 -25.894531 L 22.121094 -25.730469 L 21.757812 -36.234375 L 26.464844 -36.398438 L 26.464844 -31.6875 L 25.894531 -31.6875 L 25.894531 -36.398438 L 30.023438 -34.128906 C 29.53125 -33.230469 28.933594 -32.503906 28.226562 -31.9375 C 27.152344 -31.078125 25.941406 -30.644531 24.59375 -30.644531 C 23.695312 -30.644531 22.046875 -30.96875 19.652344 -31.613281 C 18.058594 -32.042969 16.550781 -32.257812 15.132812 -32.257812 C 12.625 -32.257812 10.734375 -31.613281 9.453125 -30.324219 C 8.789062 -29.652344 8.300781 -28.9375 7.984375 -28.183594 C 7.675781 -27.433594 7.519531 -26.601562 7.519531 -25.6875 C 7.519531 -23.375 8.035156 -21.785156 9.058594 -20.925781 C 9.816406 -20.292969 10.601562 -19.785156 11.421875 -19.40625 C 12.386719 -18.957031 14.074219 -18.394531 16.484375 -17.71875 C 19.648438 -16.828125 22.167969 -15.730469 24.042969 -14.417969 C 25.421875 -13.457031 26.46875 -12.253906 27.183594 -10.8125 C 27.871094 -9.429688 28.214844 -7.894531 28.214844 -6.214844 C 28.214844 -4.5625 27.898438 -3.066406 27.261719 -1.722656 C 26.574219 -0.265625 25.554688 0.9375 24.207031 1.882812 C 22.058594 3.386719 19.625 4.140625 16.898438 4.140625 Z M 16.898438 4.140625 "/></g></g><g style="fill:#ffffff;fill-opacity:1;"><g transform="translate(169.650624, 273.044161)"><path style="stroke:none" d="M 37.777344 -36.585938 L 38.496094 -18.632812 L 29.199219 -18.632812 L 28.128906 -21.867188 C 26.75 -26.039062 25.601562 -28.777344 24.6875 -30.078125 C 24.558594 -30.261719 24.429688 -30.386719 24.296875 -30.453125 C 24.109375 -30.546875 23.824219 -30.59375 23.449219 -30.59375 L 22.828125 -30.59375 L 22.828125 -35.304688 L 27.539062 -35.304688 L 27.539062 -1.09375 L 22.828125 -1.09375 L 22.828125 -5.804688 L 31.960938 -5.804688 L 31.960938 4.710938 L 3.554688 4.710938 L 3.554688 -5.804688 L 12.6875 -5.804688 L 12.6875 -1.09375 L 7.976562 -1.09375 L 7.976562 -35.304688 L 12.6875 -35.304688 L 12.6875 -30.59375 L 12.011719 -30.59375 C 11.65625 -30.59375 11.386719 -30.546875 11.203125 -30.453125 C 11.046875 -30.375 10.894531 -30.222656 10.738281 -29.996094 C 9.785156 -28.625 8.652344 -25.921875 7.339844 -21.886719 L 6.28125 -18.632812 L -3.03125 -18.632812 L -2.136719 -41.109375 L 37.597656 -41.109375 Z M 28.363281 -36.210938 L 33.070312 -36.398438 L 33.070312 -31.6875 L 2.390625 -31.6875 L 2.390625 -36.398438 L 7.101562 -36.210938 L 6.582031 -23.160156 L 1.871094 -23.347656 L 1.871094 -28.058594 L 2.859375 -28.058594 L 2.859375 -23.347656 L -1.621094 -24.804688 C -0.0234375 -29.714844 1.515625 -33.234375 2.992188 -35.363281 C 4.046875 -36.890625 5.355469 -38.050781 6.917969 -38.847656 C 8.449219 -39.628906 10.148438 -40.019531 12.011719 -40.019531 L 17.398438 -40.019531 L 17.398438 3.621094 L 8.269531 3.621094 L 8.269531 -1.09375 L 12.980469 -1.09375 L 12.980469 0 L 8.269531 0 L 8.269531 -4.710938 L 27.246094 -4.710938 L 27.246094 0 L 22.535156 0 L 22.535156 -1.09375 L 27.246094 -1.09375 L 27.246094 3.621094 L 18.113281 3.621094 L 18.113281 -40.019531 L 23.449219 -40.019531 C 25.296875 -40.019531 26.972656 -39.644531 28.480469 -38.898438 C 30.046875 -38.125 31.355469 -36.988281 32.40625 -35.488281 C 33.847656 -33.429688 35.40625 -29.875 37.078125 -24.828125 L 32.601562 -23.347656 L 32.601562 -28.058594 L 33.589844 -28.058594 L 33.589844 -23.347656 L 28.882812 -23.160156 Z M 28.363281 -36.210938 "/></g></g><g style="fill:#ffffff;fill-opacity:1;"><g transform="translate(204.643931, 273.044161)"><path style="stroke:none" d="M 1.300781 -41.109375 L 21.871094 -41.109375 L 21.871094 -30.699219 L 14.300781 -30.699219 L 14.300781 -35.410156 L 19.011719 -35.410156 L 19.011719 -0.988281 L 14.300781 -0.988281 L 14.300781 -5.699219 L 21.871094 -5.699219 L 21.871094 4.710938 L -3.414062 4.710938 L -3.414062 -5.699219 L 4.160156 -5.699219 L 4.160156 -0.988281 L -0.550781 -0.988281 L -0.550781 -35.410156 L 4.160156 -35.410156 L 4.160156 -30.699219 L -3.414062 -30.699219 L -3.414062 -41.109375 Z M 1.300781 -31.6875 L 1.300781 -36.398438 L 6.011719 -36.398438 L 6.011719 -35.410156 L 1.300781 -35.410156 L 1.300781 -40.121094 L 8.871094 -40.121094 L 8.871094 3.722656 L 1.300781 3.722656 L 1.300781 -0.988281 L 6.011719 -0.988281 L 6.011719 0 L 1.300781 0 L 1.300781 -4.710938 L 17.160156 -4.710938 L 17.160156 0 L 12.445312 0 L 12.445312 -0.988281 L 17.160156 -0.988281 L 17.160156 3.722656 L 9.585938 3.722656 L 9.585938 -40.121094 L 17.160156 -40.121094 L 17.160156 -35.410156 L 12.445312 -35.410156 L 12.445312 -36.398438 L 17.160156 -36.398438 L 17.160156 -31.6875 Z M 1.300781 -31.6875 "/></g></g><g style="fill:#ffffff;fill-opacity:1;"><g transform="translate(222.582532, 273.044161)"><path style="stroke:none" d="M 28.496094 -41.109375 L 47.089844 -41.109375 L 47.089844 -30.699219 L 39.519531 -30.699219 L 39.519531 -35.410156 L 44.230469 -35.410156 L 44.230469 -0.988281 L 39.519531 -0.988281 L 39.519531 -5.699219 L 47.089844 -5.699219 L 47.089844 4.710938 L 21.804688 4.710938 L 21.804688 -5.699219 L 29.378906 -5.699219 L 29.378906 -0.988281 L 24.667969 -0.988281 L 24.667969 -33.488281 L 29.378906 -33.488281 L 29.378906 -28.773438 L 29.171875 -28.773438 L 29.171875 -33.488281 L 33.761719 -32.417969 L 25.113281 4.710938 L 11.269531 4.710938 L 1.171875 -32.40625 L 5.71875 -33.640625 L 5.71875 -28.929688 L 5.511719 -28.929688 L 5.511719 -33.640625 L 10.222656 -33.640625 L 10.222656 -0.988281 L 5.511719 -0.988281 L 5.511719 -5.699219 L 13.085938 -5.699219 L 13.085938 4.710938 L -3.414062 4.710938 L -3.414062 -5.699219 L 4.160156 -5.699219 L 4.160156 -0.988281 L -0.550781 -0.988281 L -0.550781 -35.410156 L 4.160156 -35.410156 L 4.160156 -30.699219 L -3.414062 -30.699219 L -3.414062 -41.109375 L 18.988281 -41.109375 L 26.816406 -10.796875 L 22.253906 -9.621094 L 17.664062 -10.6875 L 24.753906 -41.109375 Z M 28.496094 -31.6875 L 28.496094 -36.398438 L 33.085938 -35.328125 L 26.84375 -8.550781 L 17.691406 -8.441406 L 10.777344 -35.21875 L 15.339844 -36.398438 L 15.339844 -31.6875 L 1.300781 -31.6875 L 1.300781 -36.398438 L 6.011719 -36.398438 L 6.011719 -35.410156 L 1.300781 -35.410156 L 1.300781 -40.121094 L 8.871094 -40.121094 L 8.871094 3.722656 L 1.300781 3.722656 L 1.300781 -0.988281 L 6.011719 -0.988281 L 6.011719 0 L 1.300781 0 L 1.300781 -4.710938 L 8.371094 -4.710938 L 8.371094 0 L 3.660156 0 L 3.660156 -0.988281 L 8.371094 -0.988281 L 8.371094 3.722656 L 0.800781 3.722656 L 0.800781 -38.355469 L 9.320312 -38.355469 L 19.417969 -1.238281 L 14.871094 0 L 14.871094 -4.710938 L 21.371094 -4.710938 L 21.371094 0 L 16.78125 -1.070312 L 25.429688 -38.199219 L 34.089844 -38.199219 L 34.089844 3.722656 L 26.519531 3.722656 L 26.519531 -0.988281 L 31.230469 -0.988281 L 31.230469 0 L 26.519531 0 L 26.519531 -4.710938 L 42.378906 -4.710938 L 42.378906 0 L 37.664062 0 L 37.664062 -0.988281 L 42.378906 -0.988281 L 42.378906 3.722656 L 34.804688 3.722656 L 34.804688 -40.121094 L 42.378906 -40.121094 L 42.378906 -35.410156 L 37.664062 -35.410156 L 37.664062 -36.398438 L 42.378906 -36.398438 L 42.378906 -31.6875 Z M 28.496094 -31.6875 "/></g></g><g style="fill:#ffffff;fill-opacity:1;"><g transform="translate(265.73923, 273.044161)"><path style="stroke:none" d="M 21.339844 -16.066406 L 21.339844 -19.914062 C 21.339844 -22.964844 21.265625 -25.429688 21.117188 -27.308594 C 20.996094 -28.867188 20.859375 -29.855469 20.703125 -30.273438 C 20.535156 -30.734375 20.378906 -31.046875 20.242188 -31.214844 C 20.300781 -31.140625 20.417969 -31.078125 20.589844 -31.015625 L 20.53125 -31.035156 L 20.472656 -31.058594 C 20.285156 -31.128906 19.960938 -31.164062 19.5 -31.164062 C 19.023438 -31.164062 18.679688 -31.125 18.464844 -31.046875 C 18.636719 -31.109375 18.761719 -31.195312 18.835938 -31.304688 C 18.570312 -30.921875 18.359375 -30.53125 18.199219 -30.125 C 18.046875 -29.722656 17.90625 -29.019531 17.78125 -28.015625 C 17.597656 -26.230469 17.503906 -23.460938 17.503906 -19.707031 L 17.503906 -15.964844 C 17.503906 -12.019531 17.640625 -9.300781 17.917969 -7.796875 C 18.046875 -7.101562 18.183594 -6.527344 18.328125 -6.082031 C 18.378906 -5.917969 18.429688 -5.785156 18.472656 -5.679688 C 18.488281 -5.652344 18.496094 -5.628906 18.503906 -5.613281 C 18.5 -5.621094 18.492188 -5.632812 18.484375 -5.648438 C 18.566406 -5.519531 18.636719 -5.441406 18.703125 -5.40625 C 18.863281 -5.324219 19.128906 -5.285156 19.5 -5.285156 C 19.789062 -5.285156 20.023438 -5.308594 20.207031 -5.355469 C 20.269531 -5.371094 20.308594 -5.382812 20.320312 -5.390625 C 20.296875 -5.375 20.277344 -5.359375 20.265625 -5.34375 C 20.300781 -5.390625 20.34375 -5.476562 20.386719 -5.601562 C 20.667969 -6.398438 20.890625 -7.613281 21.058594 -9.242188 C 21.246094 -11.09375 21.339844 -13.367188 21.339844 -16.066406 Z M 30.761719 -16.066406 C 30.761719 -9.808594 30.265625 -5.273438 29.273438 -2.460938 C 28.507812 -0.300781 27.234375 1.359375 25.449219 2.515625 C 23.78125 3.597656 21.796875 4.140625 19.5 4.140625 C 17.617188 4.140625 15.921875 3.757812 14.417969 2.988281 C 12.820312 2.171875 11.523438 0.980469 10.53125 -0.589844 C 9.71875 -1.867188 9.089844 -3.699219 8.652344 -6.085938 C 8.269531 -8.15625 8.078125 -11.445312 8.078125 -15.964844 L 8.078125 -19.707031 C 8.078125 -23.785156 8.195312 -26.945312 8.425781 -29.183594 C 8.648438 -30.953125 8.976562 -32.398438 9.410156 -33.519531 C 9.84375 -34.640625 10.410156 -35.703125 11.113281 -36.707031 C 12.160156 -38.203125 13.515625 -39.261719 15.179688 -39.878906 C 16.453125 -40.351562 17.894531 -40.589844 19.5 -40.589844 C 21.117188 -40.589844 22.558594 -40.347656 23.828125 -39.867188 L 22.152344 -35.460938 L 23.714844 -39.910156 C 25.167969 -39.398438 26.417969 -38.515625 27.464844 -37.269531 C 28.316406 -36.253906 29.003906 -35.023438 29.527344 -33.582031 C 29.996094 -32.332031 30.324219 -30.488281 30.515625 -28.042969 C 30.679688 -25.917969 30.761719 -23.210938 30.761719 -19.914062 Z M 19.394531 5.234375 C 12.21875 5.234375 6.734375 3.152344 2.9375 -1.011719 C -0.742188 -5.046875 -2.582031 -10.648438 -2.582031 -17.808594 C -2.582031 -24.957031 -0.644531 -30.6875 3.226562 -34.996094 C 5.257812 -37.257812 7.703125 -38.949219 10.566406 -40.074219 C 13.292969 -41.148438 16.355469 -41.683594 19.757812 -41.683594 C 23.148438 -41.683594 26.171875 -41.175781 28.832031 -40.15625 C 31.671875 -39.070312 34.066406 -37.425781 36.007812 -35.226562 C 39.652344 -31.09375 41.476562 -25.453125 41.476562 -18.304688 C 41.476562 -11.15625 39.636719 -5.492188 35.960938 -1.308594 C 33.996094 0.925781 31.566406 2.589844 28.664062 3.691406 C 25.953125 4.71875 22.867188 5.234375 19.394531 5.234375 Z M 19.394531 -4.191406 C 23.761719 -4.191406 26.925781 -5.304688 28.882812 -7.53125 C 30.992188 -9.933594 32.050781 -13.523438 32.050781 -18.304688 C 32.050781 -23.078125 31.011719 -26.640625 28.9375 -28.992188 C 27.015625 -31.167969 23.957031 -32.257812 19.757812 -32.257812 C 17.546875 -32.257812 15.632812 -31.941406 14.015625 -31.304688 C 12.535156 -30.722656 11.277344 -29.855469 10.238281 -28.699219 C 7.976562 -26.179688 6.84375 -22.550781 6.84375 -17.808594 C 6.84375 -13.082031 7.863281 -9.597656 9.90625 -7.359375 C 11.828125 -5.25 14.992188 -4.191406 19.394531 -4.191406 Z M 19.394531 -4.191406 "/></g></g><g style="fill:#166394;fill-opacity:1;"><g transform="translate(71.482193, 273.044161)"><path style="stroke:none" d="M 22.46875 -0.984375 L 18.671875 -12.21875 L 8.375 -12.21875 L 4.375 -0.984375 L 8.265625 -0.984375 L 8.265625 0 L 0.3125 0 L 0.3125 -0.984375 L 2.75 -0.984375 L 16.015625 -36.71875 L 20.28125 -36.71875 L 33.390625 -0.984375 L 35.78125 -0.984375 L 35.78125 0 L 18.765625 0 L 18.765625 -0.984375 Z M 13.734375 -26.984375 L 8.84375 -13.359375 L 18.25 -13.359375 Z M 13.734375 -26.984375 "/></g></g><g style="fill:#166394;fill-opacity:1;"><g transform="translate(107.047452, 273.044161)"><path style="stroke:none" d="M 1.09375 -36.40625 L 28.125 -36.40625 L 28.65625 -26.109375 L 27.71875 -26.109375 C 26.257812 -29.609375 24.734375 -32.003906 23.140625 -33.296875 C 21.546875 -34.597656 19.207031 -35.25 16.125 -35.25 L 14.296875 -35.25 L 14.296875 -19.1875 L 16.0625 -19.1875 C 17.695312 -19.1875 19.066406 -19.800781 20.171875 -21.03125 C 21.285156 -22.257812 22.066406 -23.914062 22.515625 -26 L 23.296875 -26 L 23.296875 -10.609375 L 22.40625 -10.609375 C 21.78125 -13.210938 20.9375 -15.066406 19.875 -16.171875 C 18.820312 -17.285156 17.378906 -17.84375 15.546875 -17.84375 L 14.296875 -17.84375 L 14.296875 -1.140625 L 16.28125 -1.140625 C 19.46875 -1.140625 22.175781 -2.09375 24.40625 -4 C 26.644531 -5.90625 28.179688 -8.351562 29.015625 -11.34375 L 30.0625 -11.34375 L 29.640625 0 L 1.09375 0 L 1.09375 -1.140625 L 4.15625 -1.140625 L 4.15625 -35.25 L 1.09375 -35.25 Z M 1.09375 -36.40625 "/></g></g><g style="fill:#166394;fill-opacity:1;"><g transform="translate(138.972987, 273.044161)"><path style="stroke:none" d="M 16.90625 -0.578125 C 18.632812 -0.578125 20.164062 -1.039062 21.5 -1.96875 C 22.832031 -2.90625 23.5 -4.316406 23.5 -6.203125 C 23.5 -8.097656 22.78125 -9.546875 21.34375 -10.546875 C 19.90625 -11.554688 17.859375 -12.429688 15.203125 -13.171875 C 12.554688 -13.921875 10.632812 -14.570312 9.4375 -15.125 C 8.238281 -15.6875 7.101562 -16.414062 6.03125 -17.3125 C 3.882812 -19.113281 2.8125 -21.90625 2.8125 -25.6875 C 2.8125 -28.769531 3.910156 -31.421875 6.109375 -33.640625 C 8.304688 -35.859375 11.3125 -36.96875 15.125 -36.96875 C 16.96875 -36.96875 18.882812 -36.695312 20.875 -36.15625 C 22.875 -35.625 24.113281 -35.359375 24.59375 -35.359375 C 25.082031 -35.359375 25.515625 -35.707031 25.890625 -36.40625 L 26.46875 -36.40625 L 26.828125 -25.890625 L 26 -25.890625 C 24.332031 -28.910156 22.585938 -31.328125 20.765625 -33.140625 C 18.953125 -34.960938 16.976562 -35.875 14.84375 -35.875 C 12.707031 -35.875 11.050781 -35.378906 9.875 -34.390625 C 8.695312 -33.410156 8.109375 -32.09375 8.109375 -30.4375 C 8.109375 -28.789062 8.8125 -27.523438 10.21875 -26.640625 C 11.625 -25.765625 13.347656 -25.046875 15.390625 -24.484375 C 17.429688 -23.929688 18.773438 -23.550781 19.421875 -23.34375 C 20.066406 -23.132812 20.863281 -22.847656 21.8125 -22.484375 C 22.769531 -22.117188 23.550781 -21.738281 24.15625 -21.34375 C 24.757812 -20.945312 25.398438 -20.441406 26.078125 -19.828125 C 26.753906 -19.222656 27.28125 -18.5625 27.65625 -17.84375 C 28.59375 -16.175781 29.0625 -14.195312 29.0625 -11.90625 C 29.0625 -8.164062 27.890625 -5.160156 25.546875 -2.890625 C 23.210938 -0.617188 20.140625 0.515625 16.328125 0.515625 C 14.347656 0.515625 12.082031 0.253906 9.53125 -0.265625 C 6.988281 -0.785156 5.578125 -1.046875 5.296875 -1.046875 C 4.816406 -1.046875 4.351562 -0.523438 3.90625 0.515625 L 3.171875 0.515625 L 2.65625 -11.859375 L 3.53125 -11.859375 C 5.0625 -8.835938 7.015625 -6.203125 9.390625 -3.953125 C 11.765625 -1.703125 14.269531 -0.578125 16.90625 -0.578125 Z M 16.90625 -0.578125 "/></g></g><g style="fill:#166394;fill-opacity:1;"><g transform="translate(169.650624, 273.044161)"><path style="stroke:none" d="M 33.078125 -36.40625 L 33.59375 -23.34375 L 32.609375 -23.34375 C 31.078125 -27.957031 29.722656 -31.101562 28.546875 -32.78125 C 27.367188 -34.46875 25.671875 -35.3125 23.453125 -35.3125 L 22.828125 -35.3125 L 22.828125 -1.09375 L 27.25 -1.09375 L 27.25 0 L 8.265625 0 L 8.265625 -1.09375 L 12.6875 -1.09375 L 12.6875 -35.3125 L 12.015625 -35.3125 C 9.796875 -35.3125 8.078125 -34.4375 6.859375 -32.6875 C 5.648438 -30.9375 4.316406 -27.820312 2.859375 -23.34375 L 1.875 -23.34375 L 2.390625 -36.40625 Z M 33.078125 -36.40625 "/></g></g><g style="fill:#166394;fill-opacity:1;"><g transform="translate(204.643931, 273.044161)"><path style="stroke:none" d="M 1.296875 -36.40625 L 17.15625 -36.40625 L 17.15625 -35.40625 L 14.296875 -35.40625 L 14.296875 -0.984375 L 17.15625 -0.984375 L 17.15625 0 L 1.296875 0 L 1.296875 -0.984375 L 4.15625 -0.984375 L 4.15625 -35.40625 L 1.296875 -35.40625 Z M 1.296875 -36.40625 "/></g></g><g style="fill:#166394;fill-opacity:1;"><g transform="translate(222.582532, 273.044161)"><path style="stroke:none" d="M 28.5 -36.40625 L 42.375 -36.40625 L 42.375 -35.40625 L 39.515625 -35.40625 L 39.515625 -0.984375 L 42.375 -0.984375 L 42.375 0 L 26.515625 0 L 26.515625 -0.984375 L 29.375 -0.984375 L 29.375 -33.484375 L 29.171875 -33.484375 L 21.375 0 L 14.875 0 L 5.71875 -33.640625 L 5.515625 -33.640625 L 5.515625 -0.984375 L 8.375 -0.984375 L 8.375 0 L 1.296875 0 L 1.296875 -0.984375 L 4.15625 -0.984375 L 4.15625 -35.40625 L 1.296875 -35.40625 L 1.296875 -36.40625 L 15.34375 -36.40625 L 22.25 -9.625 Z M 28.5 -36.40625 "/></g></g><g style="fill:#166394;fill-opacity:1;"><g transform="translate(265.73923, 273.044161)"><path style="stroke:none" d="M 26.046875 -16.0625 L 26.046875 -19.921875 C 26.046875 -26.265625 25.734375 -30.265625 25.109375 -31.921875 C 24.421875 -33.828125 23.4375 -35.007812 22.15625 -35.46875 C 21.425781 -35.738281 20.539062 -35.875 19.5 -35.875 C 18.457031 -35.875 17.5625 -35.734375 16.8125 -35.453125 C 16.070312 -35.179688 15.457031 -34.695312 14.96875 -34 C 14.488281 -33.3125 14.097656 -32.585938 13.796875 -31.828125 C 13.503906 -31.066406 13.273438 -29.988281 13.109375 -28.59375 C 12.898438 -26.582031 12.796875 -23.617188 12.796875 -19.703125 L 12.796875 -15.96875 C 12.796875 -11.738281 12.957031 -8.726562 13.28125 -6.9375 C 13.613281 -5.15625 14.023438 -3.882812 14.515625 -3.125 C 15.585938 -1.425781 17.25 -0.578125 19.5 -0.578125 C 22.238281 -0.578125 24.015625 -1.726562 24.828125 -4.03125 C 25.640625 -6.332031 26.046875 -10.34375 26.046875 -16.0625 Z M 19.390625 0.515625 C 13.609375 0.515625 9.285156 -1.050781 6.421875 -4.1875 C 3.554688 -7.320312 2.125 -11.863281 2.125 -17.8125 C 2.125 -23.757812 3.660156 -28.4375 6.734375 -31.84375 C 9.804688 -35.257812 14.148438 -36.96875 19.765625 -36.96875 C 25.378906 -36.96875 29.613281 -35.347656 32.46875 -32.109375 C 35.332031 -28.867188 36.765625 -24.265625 36.765625 -18.296875 C 36.765625 -12.335938 35.316406 -7.710938 32.421875 -4.421875 C 29.523438 -1.128906 25.179688 0.515625 19.390625 0.515625 Z M 19.390625 0.515625 "/></g></g><g style="fill:#66b0df;fill-opacity:1;"><g transform="translate(126.460938, 289.59414)"><path style="stroke:none" d="M 0.84375 -9.703125 C 1.226562 -9.773438 1.65625 -9.832031 2.125 -9.875 C 2.601562 -9.914062 3.078125 -9.9375 3.546875 -9.9375 C 4.023438 -9.9375 4.507812 -9.894531 5 -9.8125 C 5.488281 -9.738281 5.929688 -9.582031 6.328125 -9.34375 C 6.722656 -9.101562 7.039062 -8.769531 7.28125 -8.34375 C 7.53125 -7.925781 7.65625 -7.375 7.65625 -6.6875 C 7.65625 -6.070312 7.546875 -5.550781 7.328125 -5.125 C 7.117188 -4.707031 6.835938 -4.363281 6.484375 -4.09375 C 6.128906 -3.820312 5.722656 -3.625 5.265625 -3.5 C 4.816406 -3.375 4.347656 -3.3125 3.859375 -3.3125 C 3.816406 -3.3125 3.742188 -3.3125 3.640625 -3.3125 C 3.535156 -3.3125 3.425781 -3.3125 3.3125 -3.3125 C 3.207031 -3.320312 3.097656 -3.332031 2.984375 -3.34375 C 2.878906 -3.351562 2.804688 -3.363281 2.765625 -3.375 L 2.765625 0 L 0.84375 0 Z M 3.703125 -8.28125 C 3.515625 -8.28125 3.332031 -8.273438 3.15625 -8.265625 C 2.988281 -8.253906 2.859375 -8.238281 2.765625 -8.21875 L 2.765625 -5.046875 C 2.796875 -5.035156 2.847656 -5.023438 2.921875 -5.015625 C 2.992188 -5.003906 3.070312 -4.992188 3.15625 -4.984375 C 3.25 -4.984375 3.332031 -4.984375 3.40625 -4.984375 C 3.488281 -4.984375 3.546875 -4.984375 3.578125 -4.984375 C 3.835938 -4.984375 4.085938 -5.003906 4.328125 -5.046875 C 4.578125 -5.097656 4.800781 -5.1875 5 -5.3125 C 5.195312 -5.4375 5.351562 -5.609375 5.46875 -5.828125 C 5.582031 -6.054688 5.640625 -6.351562 5.640625 -6.71875 C 5.640625 -7.03125 5.582031 -7.285156 5.46875 -7.484375 C 5.363281 -7.679688 5.21875 -7.835938 5.03125 -7.953125 C 4.851562 -8.078125 4.644531 -8.160156 4.40625 -8.203125 C 4.175781 -8.253906 3.941406 -8.28125 3.703125 -8.28125 Z M 3.703125 -8.28125 "/></g></g><g style="fill:#66b0df;fill-opacity:1;"><g transform="translate(137.96447, 289.59414)"><path style="stroke:none" d="M 0.84375 -9.703125 C 1.050781 -9.742188 1.28125 -9.78125 1.53125 -9.8125 C 1.78125 -9.84375 2.023438 -9.863281 2.265625 -9.875 C 2.515625 -9.894531 2.753906 -9.910156 2.984375 -9.921875 C 3.222656 -9.929688 3.441406 -9.9375 3.640625 -9.9375 C 4.097656 -9.9375 4.546875 -9.894531 4.984375 -9.8125 C 5.429688 -9.726562 5.828125 -9.582031 6.171875 -9.375 C 6.523438 -9.175781 6.804688 -8.894531 7.015625 -8.53125 C 7.234375 -8.175781 7.34375 -7.726562 7.34375 -7.1875 C 7.34375 -6.382812 7.15625 -5.726562 6.78125 -5.21875 C 6.40625 -4.71875 5.90625 -4.367188 5.28125 -4.171875 L 5.96875 -3.734375 L 8.203125 0 L 5.984375 0 L 3.765625 -3.84375 L 2.765625 -4.015625 L 2.765625 0 L 0.84375 0 Z M 3.78125 -8.234375 C 3.582031 -8.234375 3.382812 -8.226562 3.1875 -8.21875 C 3 -8.207031 2.859375 -8.1875 2.765625 -8.15625 L 2.765625 -5.3125 L 3.5625 -5.3125 C 4.101562 -5.3125 4.53125 -5.429688 4.84375 -5.671875 C 5.15625 -5.921875 5.3125 -6.328125 5.3125 -6.890625 C 5.3125 -7.304688 5.179688 -7.632812 4.921875 -7.875 C 4.660156 -8.113281 4.28125 -8.234375 3.78125 -8.234375 Z M 3.78125 -8.234375 "/></g></g><g style="fill:#66b0df;fill-opacity:1;"><g transform="translate(149.887771, 289.59414)"><path style="stroke:none" d="M 0.53125 -4.90625 C 0.53125 -6.53125 0.890625 -7.785156 1.609375 -8.671875 C 2.328125 -9.554688 3.351562 -10 4.6875 -10 C 5.382812 -10 5.992188 -9.875 6.515625 -9.625 C 7.046875 -9.382812 7.484375 -9.039062 7.828125 -8.59375 C 8.171875 -8.144531 8.425781 -7.609375 8.59375 -6.984375 C 8.757812 -6.359375 8.84375 -5.664062 8.84375 -4.90625 C 8.84375 -3.269531 8.476562 -2.007812 7.75 -1.125 C 7.03125 -0.238281 6.007812 0.203125 4.6875 0.203125 C 3.976562 0.203125 3.363281 0.0820312 2.84375 -0.15625 C 2.320312 -0.40625 1.890625 -0.753906 1.546875 -1.203125 C 1.203125 -1.648438 0.945312 -2.1875 0.78125 -2.8125 C 0.613281 -3.4375 0.53125 -4.132812 0.53125 -4.90625 Z M 2.546875 -4.90625 C 2.546875 -4.40625 2.585938 -3.945312 2.671875 -3.53125 C 2.753906 -3.113281 2.878906 -2.753906 3.046875 -2.453125 C 3.222656 -2.160156 3.445312 -1.929688 3.71875 -1.765625 C 3.988281 -1.597656 4.3125 -1.515625 4.6875 -1.515625 C 5.375 -1.515625 5.898438 -1.78125 6.265625 -2.3125 C 6.640625 -2.84375 6.828125 -3.707031 6.828125 -4.90625 C 6.828125 -5.375 6.785156 -5.8125 6.703125 -6.21875 C 6.628906 -6.632812 6.507812 -6.992188 6.34375 -7.296875 C 6.175781 -7.609375 5.957031 -7.847656 5.6875 -8.015625 C 5.414062 -8.191406 5.082031 -8.28125 4.6875 -8.28125 C 4.007812 -8.28125 3.484375 -8.007812 3.109375 -7.46875 C 2.734375 -6.925781 2.546875 -6.070312 2.546875 -4.90625 Z M 2.546875 -4.90625 "/></g></g><g style="fill:#66b0df;fill-opacity:1;"><g transform="translate(162.762545, 289.59414)"><path style="stroke:none" d=""/></g></g><g style="fill:#66b0df;fill-opacity:1;"><g transform="translate(169.802573, 289.59414)"><path style="stroke:none" d="M 7.46875 -0.40625 C 7.175781 -0.1875 6.796875 -0.03125 6.328125 0.0625 C 5.867188 0.15625 5.394531 0.203125 4.90625 0.203125 C 4.320312 0.203125 3.765625 0.113281 3.234375 -0.0625 C 2.710938 -0.25 2.25 -0.546875 1.84375 -0.953125 C 1.445312 -1.359375 1.128906 -1.882812 0.890625 -2.53125 C 0.648438 -3.1875 0.53125 -3.976562 0.53125 -4.90625 C 0.53125 -5.863281 0.660156 -6.664062 0.921875 -7.3125 C 1.191406 -7.957031 1.539062 -8.476562 1.96875 -8.875 C 2.394531 -9.28125 2.867188 -9.566406 3.390625 -9.734375 C 3.910156 -9.910156 4.429688 -10 4.953125 -10 C 5.515625 -10 5.988281 -9.957031 6.375 -9.875 C 6.757812 -9.800781 7.082031 -9.71875 7.34375 -9.625 L 6.953125 -8 C 6.742188 -8.09375 6.488281 -8.160156 6.1875 -8.203125 C 5.894531 -8.253906 5.539062 -8.28125 5.125 -8.28125 C 4.351562 -8.28125 3.726562 -8.003906 3.25 -7.453125 C 2.78125 -6.910156 2.546875 -6.0625 2.546875 -4.90625 C 2.546875 -4.394531 2.601562 -3.929688 2.71875 -3.515625 C 2.832031 -3.097656 3 -2.742188 3.21875 -2.453125 C 3.445312 -2.160156 3.734375 -1.929688 4.078125 -1.765625 C 4.421875 -1.609375 4.816406 -1.53125 5.265625 -1.53125 C 5.679688 -1.53125 6.035156 -1.570312 6.328125 -1.65625 C 6.617188 -1.738281 6.867188 -1.84375 7.078125 -1.96875 Z M 7.46875 -0.40625 "/></g></g><g style="fill:#66b0df;fill-opacity:1;"><g transform="translate(181.124212, 289.59414)"><path style="stroke:none" d="M 0.53125 -4.90625 C 0.53125 -6.53125 0.890625 -7.785156 1.609375 -8.671875 C 2.328125 -9.554688 3.351562 -10 4.6875 -10 C 5.382812 -10 5.992188 -9.875 6.515625 -9.625 C 7.046875 -9.382812 7.484375 -9.039062 7.828125 -8.59375 C 8.171875 -8.144531 8.425781 -7.609375 8.59375 -6.984375 C 8.757812 -6.359375 8.84375 -5.664062 8.84375 -4.90625 C 8.84375 -3.269531 8.476562 -2.007812 7.75 -1.125 C 7.03125 -0.238281 6.007812 0.203125 4.6875 0.203125 C 3.976562 0.203125 3.363281 0.0820312 2.84375 -0.15625 C 2.320312 -0.40625 1.890625 -0.753906 1.546875 -1.203125 C 1.203125 -1.648438 0.945312 -2.1875 0.78125 -2.8125 C 0.613281 -3.4375 0.53125 -4.132812 0.53125 -4.90625 Z M 2.546875 -4.90625 C 2.546875 -4.40625 2.585938 -3.945312 2.671875 -3.53125 C 2.753906 -3.113281 2.878906 -2.753906 3.046875 -2.453125 C 3.222656 -2.160156 3.445312 -1.929688 3.71875 -1.765625 C 3.988281 -1.597656 4.3125 -1.515625 4.6875 -1.515625 C 5.375 -1.515625 5.898438 -1.78125 6.265625 -2.3125 C 6.640625 -2.84375 6.828125 -3.707031 6.828125 -4.90625 C 6.828125 -5.375 6.785156 -5.8125 6.703125 -6.21875 C 6.628906 -6.632812 6.507812 -6.992188 6.34375 -7.296875 C 6.175781 -7.609375 5.957031 -7.847656 5.6875 -8.015625 C 5.414062 -8.191406 5.082031 -8.28125 4.6875 -8.28125 C 4.007812 -8.28125 3.484375 -8.007812 3.109375 -7.46875 C 2.734375 -6.925781 2.546875 -6.070312 2.546875 -4.90625 Z M 2.546875 -4.90625 "/></g></g><g style="fill:#66b0df;fill-opacity:1;"><g transform="translate(193.998986, 289.59414)"><path style="stroke:none" d="M 3.28125 -5.109375 L 2.5 -6.65625 L 2.4375 -6.65625 L 2.65625 -5.109375 L 2.65625 0 L 0.84375 0 L 0.84375 -9.875 L 2.234375 -9.875 L 5.953125 -4.640625 L 6.6875 -3.15625 L 6.765625 -3.15625 L 6.53125 -4.640625 L 6.53125 -9.796875 L 8.359375 -9.796875 L 8.359375 0.0625 L 6.953125 0.0625 Z M 3.28125 -5.109375 "/></g></g><g style="fill:#66b0df;fill-opacity:1;"><g transform="translate(206.691856, 289.59414)"><path style="stroke:none" d="M 5.0625 -2.625 C 5.0625 -2.925781 4.953125 -3.171875 4.734375 -3.359375 C 4.515625 -3.546875 4.238281 -3.71875 3.90625 -3.875 C 3.582031 -4.03125 3.222656 -4.1875 2.828125 -4.34375 C 2.441406 -4.507812 2.082031 -4.710938 1.75 -4.953125 C 1.425781 -5.191406 1.15625 -5.488281 0.9375 -5.84375 C 0.71875 -6.195312 0.609375 -6.648438 0.609375 -7.203125 C 0.609375 -7.671875 0.6875 -8.078125 0.84375 -8.421875 C 1 -8.773438 1.222656 -9.066406 1.515625 -9.296875 C 1.804688 -9.535156 2.148438 -9.710938 2.546875 -9.828125 C 2.953125 -9.941406 3.40625 -10 3.90625 -10 C 4.476562 -10 5.015625 -9.945312 5.515625 -9.84375 C 6.015625 -9.75 6.429688 -9.609375 6.765625 -9.421875 L 6.15625 -7.8125 C 5.957031 -7.945312 5.648438 -8.066406 5.234375 -8.171875 C 4.828125 -8.273438 4.382812 -8.328125 3.90625 -8.328125 C 3.457031 -8.328125 3.113281 -8.238281 2.875 -8.0625 C 2.632812 -7.882812 2.515625 -7.644531 2.515625 -7.34375 C 2.515625 -7.070312 2.625 -6.84375 2.84375 -6.65625 C 3.0625 -6.46875 3.335938 -6.289062 3.671875 -6.125 C 4.003906 -5.96875 4.363281 -5.804688 4.75 -5.640625 C 5.132812 -5.472656 5.492188 -5.269531 5.828125 -5.03125 C 6.160156 -4.789062 6.4375 -4.492188 6.65625 -4.140625 C 6.875 -3.796875 6.984375 -3.363281 6.984375 -2.84375 C 6.984375 -2.320312 6.894531 -1.867188 6.71875 -1.484375 C 6.550781 -1.109375 6.3125 -0.796875 6 -0.546875 C 5.6875 -0.296875 5.304688 -0.109375 4.859375 0.015625 C 4.421875 0.140625 3.9375 0.203125 3.40625 0.203125 C 2.707031 0.203125 2.085938 0.132812 1.546875 0 C 1.015625 -0.132812 0.625 -0.265625 0.375 -0.390625 L 1 -2.03125 C 1.09375 -1.976562 1.222656 -1.914062 1.390625 -1.84375 C 1.554688 -1.78125 1.738281 -1.71875 1.9375 -1.65625 C 2.144531 -1.601562 2.363281 -1.554688 2.59375 -1.515625 C 2.820312 -1.484375 3.054688 -1.46875 3.296875 -1.46875 C 3.867188 -1.46875 4.304688 -1.5625 4.609375 -1.75 C 4.910156 -1.945312 5.0625 -2.238281 5.0625 -2.625 Z M 5.0625 -2.625 "/></g></g><g style="fill:#66b0df;fill-opacity:1;"><g transform="translate(217.607722, 289.59414)"><path style="stroke:none" d="M 6.15625 -9.796875 L 7.984375 -9.796875 L 7.984375 -3.46875 C 7.984375 -2.832031 7.894531 -2.285156 7.71875 -1.828125 C 7.550781 -1.367188 7.316406 -0.988281 7.015625 -0.6875 C 6.722656 -0.394531 6.363281 -0.175781 5.9375 -0.03125 C 5.507812 0.101562 5.035156 0.171875 4.515625 0.171875 C 2.035156 0.171875 0.796875 -0.960938 0.796875 -3.234375 L 0.796875 -9.796875 L 2.71875 -9.796875 L 2.71875 -3.609375 C 2.71875 -3.222656 2.75 -2.894531 2.8125 -2.625 C 2.882812 -2.363281 2.992188 -2.148438 3.140625 -1.984375 C 3.296875 -1.828125 3.484375 -1.710938 3.703125 -1.640625 C 3.929688 -1.578125 4.195312 -1.546875 4.5 -1.546875 C 5.082031 -1.546875 5.503906 -1.707031 5.765625 -2.03125 C 6.023438 -2.351562 6.15625 -2.878906 6.15625 -3.609375 Z M 6.15625 -9.796875 "/></g></g><g style="fill:#66b0df;fill-opacity:1;"><g transform="translate(229.880823, 289.59414)"><path style="stroke:none" d="M 7.046875 0 L 0.84375 0 L 0.84375 -9.796875 L 2.765625 -9.796875 L 2.765625 -1.703125 L 7.046875 -1.703125 Z M 7.046875 0 "/></g></g><g style="fill:#66b0df;fill-opacity:1;"><g transform="translate(240.572809, 289.59414)"><path style="stroke:none" d="M 7.796875 -8.09375 L 4.9375 -8.09375 L 4.9375 0 L 3.03125 0 L 3.03125 -8.09375 L 0.15625 -8.09375 L 0.15625 -9.796875 L 7.796875 -9.796875 Z M 7.796875 -8.09375 "/></g></g></g></svg>